<mxfile host="app.diagrams.net" modified="2021-02-10T10:03:42.427Z" agent="5.0 (Windows NT 10.0; Win64; x64) AppleWebKit/537.36 (KHTML, like Gecko) Chrome/88.0.4324.146 Safari/537.36" etag="mKBVYenwiU4gY30xwipH" version="14.3.0" type="github">
  <diagram id="xAg9NidPO8V7DdGdZRjx" name="Page-1">
    <mxGraphModel dx="2076" dy="1096" grid="1" gridSize="10" guides="1" tooltips="1" connect="1" arrows="1" fold="1" page="1" pageScale="1" pageWidth="1654" pageHeight="1169" math="0" shadow="0">
      <root>
        <object label="" id="0">
          <mxCell />
        </object>
        <mxCell id="1" parent="0" />
        <mxCell id="QrxmrUiC0J_Cw40STUVT-1" value="&lt;font style=&quot;font-size: 18px&quot;&gt;Тестирование&lt;/font&gt;" style="rounded=1;whiteSpace=wrap;html=1;" vertex="1" parent="1">
          <mxGeometry x="670" y="40" width="230" height="90" as="geometry" />
        </mxCell>
        <mxCell id="QrxmrUiC0J_Cw40STUVT-2" value="&lt;font style=&quot;font-size: 24px&quot;&gt;Skills&lt;/font&gt;" style="rounded=1;whiteSpace=wrap;html=1;" vertex="1" parent="1">
          <mxGeometry x="60" y="180" width="280" height="60" as="geometry" />
        </mxCell>
      </root>
    </mxGraphModel>
  </diagram>
</mxfile>
